<svg width="107" height="95" viewBox="0 0 107 95" fill="none" xmlns="http://www.w3.org/2000/svg">
<mask id="mask0_217_1830" style="mask-type:alpha" maskUnits="userSpaceOnUse" x="0" y="10" width="107" height="75">
<path d="M15.5729 21.7401C-5.24191 36.2035 -5.12934 59.6551 15.8245 74.1184C36.777 88.5818 70.6424 88.5818 91.4572 74.1184C112.276 59.6519 112.166 36.2035 91.2148 21.7401C80.7373 14.5045 67.0338 10.8883 53.3449 10.8883C39.656 10.8883 25.9842 14.5077 15.5729 21.7401Z" fill="white"/>
</mask>
<g mask="url(#mask0_217_1830)">
<mask id="mask1_217_1830" style="mask-type:alpha" maskUnits="userSpaceOnUse" x="5" y="23" width="95" height="72">
<path d="M5.89758 23.444H99.584V94.9269H5.89758V23.444Z" fill="white"/>
</mask>
<g mask="url(#mask1_217_1830)">
<path d="M68.0652 41.3365C62.7006 41.3397 56.7771 41.897 50.6021 43.0686C29.0868 47.1535 12.3958 57.1995 12.2925 65.8917V66.0548C12.2965 66.3224 12.315 66.5884 12.3494 66.8512C13.1903 73.1764 23.0508 76.9193 36.6934 77.0333H37.9965C43.2061 76.9906 48.9269 76.4333 54.8795 75.3028C76.3948 71.2195 93.0898 61.1688 93.1904 52.4765V52.3182C93.1865 52.0522 93.1679 51.7846 93.1322 51.5202C92.282 45.1095 82.1646 41.3539 68.2347 41.3365H68.0652Z" fill="url(#paint0_radial_217_1830)"/>
</g>
</g>
<path d="M106.999 48.1087C106.989 53.0343 106.978 52.9234 106.965 57.849C106.942 67.2728 101.766 76.6759 91.422 83.8625C70.6059 98.3226 36.7405 98.3226 15.7906 83.8625C5.24284 76.5793 -0.0224406 67.0242 7.18844e-05 57.4849L0.034504 47.7445C0.0106673 57.2838 5.2786 66.8421 15.8237 74.1189C36.7775 88.5822 70.6416 88.5822 91.4577 74.1189C101.8 66.9355 106.978 57.5276 106.999 48.1087Z" fill="#D2D2D3"/>
<path d="M91.2144 21.7401C112.167 36.2035 112.276 59.6551 91.4581 74.1184C70.642 88.5818 36.7779 88.5818 15.8241 74.1184C-5.13107 59.6551 -5.24231 36.2035 15.5738 21.7401C36.3939 7.27362 70.2593 7.27362 91.2144 21.7401Z" fill="white"/>
<path d="M84.2761 5.22253C83.4699 5.39751 82.7102 5.31798 82.0804 4.94633L85.4396 6.94486C86.0694 7.31796 86.8276 7.39749 87.6353 7.21962L84.2761 5.22253Z" fill="#FFF24E"/>
<path d="M76.9347 2.7625C78.2422 1.99172 79.5356 1.82542 80.5029 2.40097L77.1437 0.400992C76.1765 -0.174562 74.8831 -0.00825851 73.5756 0.762521C72.5194 1.39013 71.4561 2.40965 70.5525 3.75453L68.6039 6.65689L71.963 8.65686L72.2454 8.23604L75.2911 11.1456C75.4281 11.2787 75.5721 11.3886 75.7275 11.4782L79.0838 13.4782C78.9313 13.3857 78.7859 13.2758 78.6503 13.1456L74.6106 9.28737C74.4637 9.14854 74.3112 9.02996 74.146 8.93452L72.453 7.92513L73.9116 5.75306C74.8153 4.40962 75.8785 3.39011 76.9347 2.7625Z" fill="#FFF24E"/>
<path d="M76.9347 2.7625C78.4512 1.86736 79.9536 1.78782 80.942 2.73647L84.9817 6.59471C85.6778 7.25847 86.6196 7.44213 87.6349 7.21943L85.6863 10.1174C84.7812 11.4681 83.7166 12.4905 82.6576 13.1167C81.1425 14.0118 79.6401 14.0914 78.6503 13.1456L74.6105 9.28737C73.913 8.62071 72.9782 8.43416 71.963 8.65687L73.9116 5.75307C74.8153 4.40963 75.8785 3.39012 76.9347 2.7625Z" fill="#FFD700"/>
<path d="M31.9987 61.8132L18.1625 53.5775L21.732 46.9818L35.5655 55.2131L31.9987 61.8132Z" fill="#56B2BA"/>
<path d="M72.6395 16.879C71.1244 19.469 69.0558 22.1891 66.5904 24.9006C65.0852 26.555 63.4318 28.2079 61.6654 29.8261C57.3573 33.7667 52.3701 37.4977 47.2106 40.5476C42.0512 43.5989 37.0597 45.768 32.7432 46.9249C30.9754 47.3993 29.3205 47.7044 27.8139 47.8317C25.3386 48.0413 23.2616 47.7695 21.731 46.9813L35.5658 55.2126C37.095 56.0036 39.1735 56.2712 41.6473 56.0658C43.1525 55.9386 44.8088 55.6334 46.5766 55.1591C50.896 54.0008 55.886 51.8316 61.0441 48.7818C66.2021 45.7305 71.1879 42.0024 75.4974 38.0574C77.2652 36.4406 78.9187 34.7891 80.4253 33.1305C82.8892 30.419 84.9578 27.6988 86.4743 25.1117L72.6395 16.879Z" fill="#85CDD9"/>
<path d="M86.474 25.1123L90.0648 27.4739C84.3504 37.2062 73.2393 47.7195 61.0607 54.9182C48.8822 62.1242 37.7485 64.7619 31.9988 61.8133L35.5655 55.2118C37.0947 56.0028 39.1732 56.2718 41.647 56.065C43.1522 55.9377 44.8085 55.6326 46.5763 55.1583C50.8957 54.0014 55.8857 51.8322 61.0438 48.7809C66.2032 45.7311 71.1876 42.003 75.4985 38.0565C77.2663 36.4412 78.9184 34.7883 80.425 33.1311C82.8889 30.4196 84.9575 27.6994 86.474 25.1123Z" fill="#019C9D"/>
<path d="M64.8459 31.8288C64.3164 28.5693 62.8592 26.2251 60.7793 24.9887L67.6939 29.1058C69.7752 30.3437 71.2324 32.6849 71.7619 35.9445C69.6877 34.7095 66.9215 33.0638 64.8459 31.8288Z" fill="#F6AA00"/>
<path d="M67.2698 3.99105L74.1858 8.10958C72.6566 7.19998 70.5414 7.32434 68.2087 8.70538L61.2927 4.58685C63.6254 3.2087 65.7405 3.08144 67.2698 3.99105Z" fill="#F6AA00"/>
<path d="M37.9115 53.9526L30.9955 49.837L30.9531 35.4163L37.8705 39.5334L37.9115 53.9526Z" fill="#F6AA00"/>
<path d="M63.984 11.2019L57.068 7.08626L61.2927 4.58737L68.2087 8.70446L63.984 11.2019Z" fill="#F6AA00"/>
<path d="M46.5366 21.5196L39.6206 17.4039L43.8467 14.9051L50.7628 19.0222L46.5366 21.5196Z" fill="#F6AA00"/>
<path d="M50.7628 19.0227L43.8468 14.9042L57.0646 7.08647L63.9834 11.2021L50.7628 19.0227Z" fill="#85CDD9"/>
<path d="M37.87 39.5338L30.954 35.4153L26.9128 29.9952L33.8303 34.1109L37.87 39.5338Z" fill="#F6AA00"/>
<path d="M27.44 40.2824L20.5212 36.1639C20.4873 36.1422 20.452 36.1219 20.4181 36.0959L27.3355 40.2144C27.368 40.2376 27.4047 40.2593 27.44 40.2824Z" fill="#F6AA00"/>
<path d="M38.0853 18.0145L31.1693 13.8959L39.6202 17.4042L46.5362 21.5198L38.0853 18.0145Z" fill="#F6AA00"/>
<path d="M27.3352 40.2145L20.4191 36.096L16.7479 33.4641L23.6639 37.5797L27.3352 40.2145Z" fill="#F6AA00"/>
<path d="M23.8798 32.6084L16.9637 28.4928L18.2233 26.4089L25.1393 30.5245L23.8798 32.6084Z" fill="#FFF24E"/>
<path d="M25.1399 30.524L18.2239 26.4083L25.1088 15.0231L32.0248 19.1416L26.3994 28.443L25.1399 30.524Z" fill="#F6AA00"/>
<path d="M23.6646 37.5794L16.7486 33.4638C15.6727 32.6901 15.7673 30.4616 16.9632 28.4935L23.8792 32.6077C22.6847 34.5802 22.5887 36.8086 23.6646 37.5794Z" fill="#F6AA00"/>
<path d="M32.0248 19.1414L25.1088 15.0229L25.0961 11.1169L32.0121 15.2355L32.0248 19.1414Z" fill="#F6AA00"/>
<path d="M29.0038 6.9115L35.9198 11.03C35.5047 10.7813 34.9272 10.8146 34.2918 11.1906L27.3772 7.07202C28.0112 6.70036 28.5873 6.66566 29.0038 6.9115Z" fill="#F6AA00"/>
<path d="M34.2919 11.1905C35.5542 10.4443 36.5836 11.0459 36.5878 12.5296L36.6005 16.9446L38.0859 18.0147L46.5382 21.5201L68.2097 8.70466C72.8453 5.96572 76.6253 8.16815 76.6394 13.6258L76.6888 31.0211C75.1836 32.6755 73.5287 34.3284 71.7623 35.9437C70.5536 28.5049 64.5215 25.8614 57.2638 30.1534C50.0033 34.4441 44.0051 44.2053 42.8388 53.0483C41.0723 53.5198 39.4175 53.8278 37.9108 53.9521L37.8699 39.5344L33.8301 34.1115L31.4495 38.0478C30.896 38.9603 30.2013 39.6631 29.5094 40.0709C28.7116 40.5452 27.9124 40.6291 27.3349 40.2141L23.6651 37.5792C22.5892 36.8085 22.6838 34.58 23.8797 32.6089L32.0256 19.1413L32.0129 15.2353C32.0101 13.7502 33.0324 11.9338 34.2919 11.1905Z" fill="#F08600"/>
<path d="M32.0125 15.2352L25.0964 11.1167C25.0936 9.63443 26.1159 7.81811 27.3768 7.07191L34.2914 11.1876C33.0333 11.9366 32.0096 13.7501 32.0125 15.2352Z" fill="#F6AA00"/>
<path d="M31.4499 38.0483L23.8801 32.608L25.1368 30.5241L32.7108 35.9673L31.4499 38.0483Z" fill="#FFD700"/>
<path d="M32.1257 23.1495C33.2228 22.5002 34.1166 23.0222 34.1194 24.3136C34.1251 25.6064 33.2341 27.1798 32.1398 27.8262C31.0412 28.4798 30.1474 27.9563 30.1432 26.6664C30.1404 25.3721 31.0285 23.7988 32.1257 23.1495Z" fill="white"/>
<path d="M32.1283 24.0446C32.8033 23.6498 33.3568 23.9622 33.3582 24.7648C33.361 25.5587 32.8089 26.5276 32.134 26.9253C31.4619 27.3215 30.9154 27.0019 30.9126 26.2109C30.9098 25.4112 31.4534 24.4423 32.1283 24.0446Z" fill="#342822"/>
<path d="M63.9841 11.2018L50.7634 19.0224L50.7959 25.0845C50.8016 27.2306 52.2827 28.0953 54.1056 27.0165L60.7378 23.0932C62.5495 22.0216 64.0194 19.41 64.0165 17.2654L63.9841 11.2018Z" fill="#41AEB9"/>
<defs>
<radialGradient id="paint0_radial_217_1830" cx="0" cy="0" r="1" gradientUnits="userSpaceOnUse" gradientTransform="translate(52.7497 59.1747) rotate(-10.7466) scale(31.1839 11.2353)">
<stop stop-color="#D4D4D5"/>
<stop offset="1" stop-color="white"/>
</radialGradient>
</defs>
</svg>
