<svg width="107" height="95" viewBox="0 0 107 95" fill="none" xmlns="http://www.w3.org/2000/svg">
<path d="M107 51.5829C106.989 56.1722 106.979 56.069 106.966 60.6582C106.943 69.4385 101.766 78.1996 91.4226 84.8954C70.6063 98.3682 36.7407 98.3682 15.7907 84.8954C5.24287 78.1096 -0.0224408 69.2069 7.18848e-05 60.3189L0.0345043 51.2436C0.0106674 60.1316 5.27863 69.0372 15.8238 75.8172C36.7778 89.2929 70.6421 89.2929 91.4583 75.8172C101.801 69.1243 106.979 60.3588 107 51.5829Z" fill="#D2D2D3"/>
<path d="M91.182 27.3315C112.133 40.8073 112.242 62.6576 91.4243 76.1378C70.608 89.6106 36.7437 89.612 15.7898 76.1378C-5.16553 62.6576 -5.27677 40.8073 15.5395 27.3315C36.3597 13.8543 70.2253 13.8528 91.182 27.3315Z" fill="white"/>
<path d="M40.5797 42.544L73.1846 64.148L105.497 43.7861C103.265 37.7571 98.4928 32.0349 91.1815 27.3335C86.5677 24.3654 81.3276 22.0509 75.7378 20.3898L40.5797 42.544Z" fill="url(#paint0_linear_217_1827)"/>
<path d="M99.1289 34.4495L95.6964 32.2279L95.707 36.649L99.1289 34.4495Z" fill="#96BEE5"/>
<path d="M71.8249 48.1298H71.8236C71.8263 48.1311 71.8276 48.1324 71.8289 48.1324H71.8303L71.8249 48.1298Z" fill="#EB6800"/>
<path d="M68.9848 48.9731C68.8974 49.0161 68.8087 49.059 68.72 49.1064C68.8087 49.059 68.8974 49.0161 68.9848 48.9731Z" fill="#EB6800"/>
<path d="M69.9239 48.567C69.8418 48.5981 69.7597 48.6322 69.6763 48.6647C69.7597 48.6322 69.8418 48.5981 69.9239 48.567Z" fill="#EB6800"/>
<path d="M71.6594 48.1469C71.7164 48.1412 71.772 48.1383 71.8289 48.1327C71.8276 48.1327 71.8263 48.1312 71.8236 48.1298C71.7693 48.1341 71.7137 48.1412 71.6594 48.1469Z" fill="#EB6800"/>
<path d="M70.8279 48.2885C70.8212 48.2898 70.8159 48.2911 70.8092 48.2925C70.8159 48.2911 70.8212 48.2898 70.8279 48.2885Z" fill="#EB6800"/>
<path d="M72.7107 61.6741C72.5823 61.3894 72.4353 61.1268 72.2605 60.907C72.1943 60.8258 72.1095 60.7757 72.0367 60.7034C71.8963 60.5618 71.7626 60.4128 71.601 60.3095L71.5984 60.3081C70.6383 59.6988 69.3166 59.7888 67.8652 60.7034L73.1848 64.1479C73.1822 63.2024 73.0286 62.3969 72.7558 61.7523C72.7425 61.7228 72.724 61.7036 72.7107 61.6741Z" fill="#185684"/>
<path d="M83.7382 23.9533C83.6203 24.0521 83.5012 24.1539 83.3833 24.2572C82.5623 24.9756 81.7492 25.8135 81.0036 26.7709C81.3002 26.6499 81.6392 26.765 81.8008 27.0807C81.8988 27.271 81.9081 27.4878 81.8511 27.6781C81.8008 27.8448 81.7054 27.9938 81.5585 28.0882L79.286 29.5501C78.8755 30.4131 78.5484 31.3439 78.3193 32.3441C78.2968 32.4415 78.2716 32.5374 78.2504 32.6391L78.514 32.468L83.8984 29.0058L84.0931 28.8804C84.4096 28.6753 84.8148 28.7963 84.9963 29.1489C85.0943 29.3392 85.1035 29.556 85.0453 29.7478C84.9963 29.913 84.9009 30.0635 84.7552 30.1564L79.8329 33.3236L77.9842 34.5111C77.9101 35.3048 77.8611 36.1265 77.8439 36.9835C77.8425 36.9983 77.8425 37.013 77.8425 37.0263L77.8757 37.0042L81.7107 34.5392L87.0952 31.074L87.2899 30.9501C87.6077 30.745 88.013 30.8689 88.1931 31.22C88.2911 31.4103 88.3003 31.6242 88.2434 31.8175C88.1944 31.9827 88.0977 32.1332 87.952 32.2261L83.0297 35.3918L79.1946 37.8583L77.8346 38.7346C77.8664 43.0259 78.1869 47.7302 77.1447 51.5745C78.2557 47.4706 80.4673 43.4094 83.1992 40.4517C84.2295 39.335 85.326 38.3628 86.4755 37.6238L91.8613 34.16L95.2832 31.9591L95.6951 31.6935L83.7382 23.9533Z" fill="#EBE6DC"/>
<path d="M72.1482 43.6376C72.0993 43.6509 72.0503 43.6568 72.0026 43.6568C71.6993 43.6568 71.4252 43.4237 71.3563 43.0815C71.3179 42.8897 71.016 41.3275 70.9061 39.0661C70.8796 38.5439 70.869 37.9759 70.8703 37.3858C70.8716 36.5996 70.9034 35.7676 70.9736 34.8972C71.0226 34.2968 71.0915 33.6846 71.1842 33.0591C71.2027 32.9411 71.2186 32.8261 71.2371 32.7066C71.4662 31.314 71.837 29.8875 72.3601 28.4861C73.0262 26.7041 73.9797 24.9811 75.3013 23.4395C75.9622 22.668 76.6865 21.9304 77.5486 21.2739C77.8492 21.0482 78.2637 21.1309 78.469 21.4672C78.6756 21.8021 78.5975 22.2623 78.2968 22.4924C77.6122 23.0132 77.0282 23.5973 76.4839 24.2051C75.1345 25.7157 74.1903 27.449 73.5454 29.2532C73.213 30.1796 72.9494 31.1149 72.7574 32.0486C72.6568 32.5428 72.5654 33.0341 72.4979 33.5223C72.4767 33.6669 72.4648 33.8071 72.4475 33.9516C72.3376 34.8308 72.2621 35.6953 72.2343 36.5081C72.2145 37.1085 72.2171 37.6735 72.2277 38.2149C72.282 40.8496 72.6369 42.7053 72.6475 42.7555C72.7283 43.1538 72.5058 43.5477 72.1482 43.6376ZM68.329 41.0266C68.2867 41.0369 68.2443 41.0413 68.2019 41.0413C67.892 41.0413 67.6153 40.7979 67.553 40.4468C67.5239 40.2831 67.3252 39.0587 67.2458 37.2604C67.2233 36.753 67.2114 36.2057 67.2153 35.6141C67.2259 34.0711 67.3411 32.2891 67.6934 30.4112C67.949 29.0408 68.3489 27.6305 68.8958 26.2438C69.5898 24.4825 70.5657 22.7727 71.898 21.2356C72.5747 20.4523 73.3176 19.7029 74.1969 19.0331C74.4962 18.8074 74.9094 18.8915 75.1173 19.2264C75.3225 19.5627 75.2457 20.0215 74.9438 20.2516C74.2432 20.7857 73.642 21.3831 73.0832 22.0042C71.7258 23.5103 70.7564 25.2304 70.0797 27.0109C69.5461 28.4153 69.1792 29.8418 68.9488 31.2255C68.7449 32.4573 68.6402 33.6374 68.5952 34.7246C68.5714 35.3339 68.5621 35.9107 68.5701 36.4447C68.6018 38.6294 68.8442 40.1179 68.8521 40.1636C68.9223 40.5619 68.6892 40.9499 68.329 41.0266ZM64.9469 37.4537C65.0025 37.8549 64.7548 38.2326 64.3946 38.296C64.3589 38.3019 64.3258 38.3049 64.29 38.3049C63.9709 38.3049 63.6888 38.0452 63.6371 37.6823C63.5921 37.3652 63.0214 33.0429 64.102 28.0863C64.3946 26.7424 64.8237 25.3543 65.4024 23.9838H65.4037C66.136 22.2505 67.1398 20.56 68.4866 19.0273C69.1845 18.2351 69.9473 17.4768 70.8452 16.7924C71.1445 16.5637 71.5589 16.6478 71.7655 16.9856C71.9708 17.3205 71.894 17.7807 71.5921 18.0109C70.8743 18.5581 70.2545 19.1674 69.6772 19.7988C68.3039 21.302 67.3014 22.9999 66.5837 24.7465C66.0142 26.1332 65.6103 27.5361 65.3415 28.8888C64.4304 33.4633 64.9363 37.3829 64.9469 37.4537ZM61.2601 34.9813C61.3078 35.384 61.0522 35.7558 60.6906 35.8089C60.6602 35.8133 60.6324 35.8148 60.6019 35.8148C60.2748 35.8148 59.9901 35.5463 59.9464 35.1745C59.9106 34.8648 59.4551 30.6694 60.5993 25.8204C60.9144 24.4898 61.3607 23.115 61.958 21.7534C62.7115 20.0348 63.7312 18.3546 65.0859 16.8263C65.797 16.0208 66.5784 15.2493 67.4921 14.553C67.794 14.3273 68.2059 14.4099 68.4138 14.7463C68.6191 15.0826 68.5409 15.5414 68.2403 15.7715C67.504 16.3321 66.8697 16.9531 66.2764 17.5978C64.8952 19.0981 63.8742 20.7842 63.1313 22.5131V22.5146C62.542 23.888 62.1195 25.2776 61.8255 26.6141C60.8429 31.0986 61.2508 34.912 61.2601 34.9813ZM57.9083 32.7405C57.956 33.1447 57.7004 33.5164 57.3376 33.5696C57.3084 33.574 57.2793 33.5755 57.2502 33.5755C56.9231 33.5755 56.6384 33.3055 56.5947 32.9338C56.5589 32.6254 56.1087 28.464 57.2343 23.6401C57.5455 22.3095 57.9865 20.9332 58.5811 19.5686V19.5672C59.3055 17.9046 60.2735 16.2731 61.5554 14.7802C62.3089 13.904 63.1525 13.0661 64.1404 12.3137C64.4423 12.0865 64.8555 12.1706 65.0607 12.5055C65.0634 12.5099 65.0634 12.5158 65.066 12.5202C65.262 12.8551 65.1852 13.3036 64.8886 13.5322C64.1351 14.1046 63.4875 14.7404 62.885 15.4013C61.509 16.9089 60.492 18.5965 59.7557 20.3269V20.3284C59.1691 21.7076 58.7506 23.0973 58.4606 24.4353C57.4965 28.8932 57.9004 32.6712 57.9083 32.7405M54.5566 30.4997C54.6043 30.9024 54.3487 31.2742 53.9858 31.3273C53.9567 31.3317 53.9276 31.3332 53.8984 31.3332C53.5713 31.3332 53.2866 31.0647 53.2429 30.693C53.2072 30.3861 52.7622 26.2586 53.8693 21.4628C54.0295 20.7665 54.2189 20.0628 54.452 19.3474C54.6652 18.6939 54.9195 18.0374 55.2029 17.381C56.1855 15.1062 57.6289 12.8861 59.7054 11.0067C60.0563 10.6881 60.4006 10.3665 60.7886 10.0714C60.9489 9.95048 61.1396 9.92393 61.3144 9.97113C61.4706 10.011 61.6123 10.1083 61.709 10.2647C61.9143 10.5996 61.8375 11.0598 61.5355 11.2899C59.0644 13.1723 57.4581 15.6034 56.3987 18.0964C56.3934 18.1112 56.3854 18.1259 56.3788 18.1421C55.7948 19.5244 55.383 20.9184 55.0956 22.2564C54.1487 26.6864 54.5487 30.4304 54.5566 30.4997M51.2035 28.2589C51.2512 28.6631 50.997 29.0349 50.6341 29.088C50.6037 29.0924 50.5745 29.0939 50.5467 29.0939C50.2196 29.0939 49.9349 28.8239 49.8912 28.4522C49.8634 28.2235 49.6144 25.8529 49.9442 22.6768C50.1388 20.8152 50.5454 18.685 51.3121 16.5224C52.4206 13.3965 54.2825 10.2337 57.4369 7.83212C57.7362 7.60347 58.1494 7.68756 58.3573 8.0239C58.5625 8.36024 58.4857 8.81902 58.1838 9.05062C55.9762 10.7308 54.4599 12.8507 53.4032 15.0605C53.2615 15.3585 53.1277 15.6565 53.0019 15.9559C52.2365 17.7866 51.7677 19.6365 51.4909 21.3389C50.8712 25.1669 51.1969 28.197 51.2035 28.2589M47.2824 26.8457C47.2532 26.8501 47.2228 26.8516 47.195 26.8516C47.0241 26.8516 46.8666 26.7749 46.7474 26.6524C46.6388 26.5389 46.5606 26.3884 46.5395 26.2114C46.5169 26.0255 46.3488 24.4249 46.46 22.1369C46.6825 17.5609 48.0452 10.1909 54.0838 5.58985C54.3871 5.36268 54.7963 5.44676 55.0055 5.7831C55.2108 6.11797 55.1327 6.57822 54.8321 6.80835C50.2368 10.3089 48.5841 15.6904 48.0253 19.871C47.7154 22.1871 47.7366 24.1137 47.7909 25.161C47.8174 25.6744 47.8492 25.9989 47.8518 26.0181C47.8995 26.4208 47.6452 26.7926 47.2824 26.8457ZM54.5725 0.350025C54.5725 0.350025 46.4137 6.82163 44.6272 12.6737C43.2248 17.2585 43.3493 24.2332 43.2301 28.3032C43.3268 28.3666 43.4274 28.43 43.5241 28.4935C44.0498 28.8357 44.5782 29.1765 45.1172 29.5261C54.6599 35.7027 66.1135 43.1184 74.9941 48.8671C74.957 48.8421 74.9147 48.8288 74.8763 48.8037C75.8337 49.3849 76.6124 50.3158 77.1447 51.5741C78.1869 47.7298 77.8665 43.0254 77.8347 38.7341C77.8294 38.1559 77.832 37.585 77.8426 37.0274C77.8426 37.0126 77.8426 36.9979 77.8439 36.9831C77.8598 36.126 77.9102 35.3058 77.9843 34.5107C78.0307 34.0283 78.0717 33.5386 78.1472 33.0857C78.1737 32.9308 78.22 32.7892 78.2505 32.6387C78.2717 32.5384 78.2968 32.441 78.3194 32.3437C78.5485 31.3435 78.8756 30.4127 79.2861 29.5497C79.7257 28.6262 80.2449 27.7824 80.8222 27.0124C80.8818 26.9327 80.9427 26.8501 81.0037 26.7705C81.7492 25.8131 82.5623 24.9766 83.3834 24.2568C83.5012 24.1535 83.6204 24.0532 83.7383 23.9529C86.3312 21.7829 88.8195 20.765 88.8195 20.765L54.5725 0.350025Z" fill="#F9F8F2"/>
<path d="M71.8302 48.1324C71.8475 48.1311 71.8648 48.1298 71.8835 48.1284C71.8635 48.1298 71.8448 48.1284 71.8248 48.1298L71.8302 48.1324Z" fill="#F9F8F2"/>
<path d="M50.3636 65.8115L16.396 43.8254L12.9741 46.0235L46.9417 68.0125L50.3636 65.8115Z" fill="#96BEE5"/>
<path d="M99.129 34.4496L95.707 36.6491L86.4888 42.5808C82.8338 44.9307 79.629 49.4831 77.8519 54.3557C77.587 55.077 77.3566 55.8087 77.158 56.536C77.0414 56.2601 76.9116 56.0064 76.7726 55.763C76.7329 55.6936 76.6918 55.6287 76.6494 55.5638C76.5422 55.3868 76.4283 55.2216 76.3091 55.0637C76.2614 55.0018 76.2164 54.9398 76.1674 54.8823C76.0164 54.6964 75.8575 54.5223 75.688 54.366C75.6721 54.3498 75.6575 54.3335 75.643 54.3188C75.4576 54.1491 75.2629 54.0031 75.059 53.8674C74.9994 53.8275 74.9371 53.7936 74.8776 53.7567C74.7213 53.6623 74.5624 53.5782 74.3982 53.503C74.328 53.472 74.2591 53.4381 74.1863 53.4115C73.985 53.3304 73.7758 53.2625 73.5612 53.2094C73.5347 53.2035 73.5069 53.1917 73.4804 53.1858C73.2368 53.1313 72.9865 53.0988 72.7296 53.0796C72.6554 53.0737 72.5773 53.0752 72.5018 53.0722C72.3071 53.0663 72.1085 53.0708 71.9059 53.0855C71.8834 53.087 71.8595 53.0885 71.837 53.0914H71.8357C71.7774 53.0959 71.7205 53.0988 71.6622 53.1047C71.3987 53.1342 71.1299 53.177 70.8557 53.2419C70.8438 53.2448 70.8306 53.2463 70.8173 53.2493C70.53 53.3186 70.2373 53.413 69.938 53.5237C69.8546 53.5532 69.7698 53.59 69.6851 53.6225C69.4586 53.714 69.2309 53.8157 68.9991 53.9279C68.9104 53.9721 68.8217 54.0149 68.7316 54.0621C68.4535 54.2081 68.1728 54.3675 67.888 54.5474C67.8563 54.5681 67.8245 54.5828 67.7927 54.6035L66.291 55.5682L65.2819 56.2188L63.1021 57.6202L50.3639 65.8119L46.942 68.0129L46.9579 74.1422L67.8086 60.7314C67.8271 60.7196 67.8457 60.7151 67.8655 60.7033C69.3169 59.7887 70.6372 59.6987 71.5987 60.308C71.6 60.308 71.6 60.308 71.6013 60.3095C71.7629 60.4127 71.8966 60.5617 72.037 60.7033C72.1098 60.7756 72.1946 60.8258 72.2608 60.9084C72.4356 61.1267 72.5826 61.3893 72.711 61.674C72.7243 61.7035 72.7428 61.7227 72.7561 61.7522C73.0289 62.3968 73.1825 63.2023 73.1851 64.1479L76.3727 62.0959L77.9671 61.0721L81.1626 59.0157C81.152 55.2349 83.5489 50.6087 86.5047 48.7087L99.1449 40.5775L99.129 34.4496Z" fill="#2A78B4"/>
<path d="M12.9736 46.0233L12.9908 52.1527L46.9584 74.1432L46.9412 68.0123L12.9736 46.0233Z" fill="#669ED5"/>
<path d="M16.3826 38.8679L16.3958 43.8245L20.2296 41.358L16.3826 38.8679Z" fill="#B9B3A7"/>
<path d="M50.3507 60.86L20.2301 41.3582L16.395 43.8247L50.3639 65.8107L50.3507 60.86Z" fill="#B9B3A7"/>
<path d="M64.9333 47.4105L64.6274 47.6082L63.9944 48.0139L63.9931 48.0154L60.885 50.0142L60.7936 50.0732L59.2919 51.0395L58.2841 51.6871L56.1044 53.09L50.7212 56.5507C50.6166 56.6186 50.5027 56.6511 50.3901 56.6511C50.161 56.6511 49.9386 56.5183 49.8154 56.2823C49.6327 55.9282 49.7412 55.4783 50.0591 55.2747L54.7854 52.2359L56.9638 50.833L57.9729 50.1854L59.4746 49.2191L59.566 49.1601L62.6741 47.1612H62.6754L63.3071 46.7541L63.6951 46.5048H63.6964L64.2712 46.1345C64.5877 45.9295 64.9942 46.0504 65.1756 46.403C65.3438 46.7275 65.2564 47.1258 64.9982 47.3471C64.9744 47.3678 64.9598 47.3928 64.9333 47.4105ZM47.196 54.5829C46.9669 54.5829 46.7444 54.4501 46.6213 54.2141C46.4385 53.8615 46.5471 53.4101 46.8636 53.208L51.5899 50.1662L53.7697 48.7648L54.7775 48.1172L56.2805 47.1509L56.3719 47.0904L59.4786 45.093H59.4799L60.1116 44.6844L60.4996 44.4351L61.0757 44.0648C61.3922 43.8613 61.7974 43.9822 61.9802 44.3348C62.147 44.6593 62.061 45.0562 61.8027 45.2789C61.7789 45.2981 61.763 45.3246 61.7378 45.3423L61.4306 45.5385L60.7989 45.9457L60.7976 45.9472L57.6909 47.9446L57.5982 48.0036L56.0964 48.9713L55.0887 49.6189L52.9089 51.0203L47.5257 54.484C47.4224 54.5519 47.3086 54.5829 47.196 54.5829ZM44.0005 52.5147C43.7714 52.5147 43.5489 52.3819 43.4258 52.1459C43.243 51.7933 43.3516 51.3419 43.6681 51.1383L48.3958 48.098L50.5742 46.6966L51.582 46.0475L53.0837 45.0827L53.1764 45.0222L56.2832 43.0234H56.2845L56.9175 42.6162L57.3042 42.3669L57.8802 41.9966C58.1981 41.7916 58.6033 41.9126 58.7834 42.2666C58.9516 42.5897 58.8655 42.988 58.6073 43.2092C58.5834 43.2299 58.5675 43.2564 58.5424 43.2727L58.2351 43.4703L57.6035 43.8775H57.6021L54.4954 45.8764L54.4027 45.9354L52.901 46.9016L51.8932 47.5507L49.7134 48.9521L44.3303 52.4158C44.227 52.4822 44.1131 52.5147 44.0005 52.5147ZM40.8051 50.445C40.576 50.445 40.3535 50.3122 40.2303 50.0762C40.0476 49.7221 40.1562 49.2722 40.4727 49.0686L45.199 46.0283L47.3787 44.6269L48.3865 43.9793L49.8882 43.0145L49.9809 42.954L53.0877 40.9552L53.722 40.548L54.11 40.2987L54.6861 39.9284C55.0026 39.7234 55.4091 39.8444 55.5892 40.1969C55.7574 40.5215 55.6713 40.9198 55.4131 41.141C55.3893 41.1617 55.3734 41.1882 55.3482 41.2045L55.041 41.4021L54.4067 41.8093L51.2999 43.8082L51.2072 43.8672L49.7055 44.8334L48.6977 45.481L46.518 46.8839L41.1348 50.3447C41.0315 50.4125 40.9176 50.445 40.8051 50.445ZM37.6109 48.3753C37.3818 48.3753 37.1593 48.2425 37.0362 48.0065C36.8534 47.6539 36.962 47.2025 37.2785 47.0004L42.0048 43.9601L44.1846 42.5587L45.191 41.9111L46.6941 40.9448L46.7855 40.8844L49.8922 38.887L50.5279 38.4783L50.9145 38.229L51.4906 37.8588C51.8045 37.6537 52.211 37.7762 52.3951 38.1287C52.5633 38.4533 52.4759 38.8516 52.2163 39.0728C52.1938 39.092 52.1779 39.12 52.1527 39.1363L51.8455 39.3325L51.2112 39.7411L48.1044 41.7385L48.0117 41.7975L46.51 42.7652L45.5036 43.4128L43.3225 44.8142L37.9406 48.2765C37.8374 48.3443 37.7235 48.3753 37.6109 48.3753M34.4141 46.3086C34.185 46.3086 33.9625 46.1758 33.8394 45.9398C33.6566 45.5872 33.7652 45.1358 34.0817 44.9322L39.1749 41.6574L40.9891 40.4905L43.4973 38.8766L43.978 38.5669L46.6967 36.8173L47.3311 36.4101L47.7178 36.1608L48.2938 35.7906C48.6077 35.5826 49.0142 35.7065 49.1983 36.0605C49.3665 36.3836 49.2791 36.7819 49.0195 37.0032C48.997 37.0238 48.9811 37.0518 48.956 37.0666L48.65 37.2628L48.0157 37.6714L44.909 39.6703L44.8163 39.7293L43.3132 40.6955L42.3081 41.3446L40.1283 42.746L34.7439 46.2098C34.6406 46.2761 34.5267 46.3086 34.4141 46.3086M31.22 44.2404C30.9909 44.2404 30.7684 44.1076 30.6452 43.8716C30.4625 43.5176 30.5711 43.0676 30.8876 42.864L37.7698 38.437L37.7937 38.4208L40.3018 36.807L43.3053 34.876L43.4999 34.7506L44.1369 34.3419L44.5223 34.0926L45.0983 33.7224C45.4135 33.5158 45.8187 33.6383 46.0041 33.9909C46.1723 34.3154 46.0849 34.7152 45.8254 34.9364C45.8015 34.9556 45.787 34.9822 45.7605 34.9984L45.4559 35.1961L44.8202 35.6032L43.7185 36.3128L41.6208 37.6626L39.1126 39.2749L38.6703 39.5596L31.5497 44.1401C31.4451 44.2079 31.3312 44.2404 31.22 44.2404M28.0218 42.1692C27.7941 42.1692 27.5716 42.0365 27.4484 41.8004C27.2657 41.4479 27.3743 40.9965 27.6908 40.7944L37.105 34.7373L40.9401 32.2708L41.299 32.0407L41.3255 32.023L41.9029 31.6512C42.2194 31.4462 42.6246 31.5686 42.8074 31.9212C42.9769 32.2457 42.8895 32.6455 42.6286 32.8668C42.6061 32.8859 42.5902 32.9125 42.565 32.9287L42.3399 33.0733L42.2591 33.1249L38.424 35.5914L28.3529 42.0704C28.2483 42.1383 28.1344 42.1692 28.0218 42.1692ZM24.8264 40.101C24.5986 40.101 24.3761 39.9683 24.253 39.7322C24.0702 39.3797 24.1788 38.9283 24.4953 38.7247L33.9096 32.6691L35.0815 31.9153L37.7447 30.2026L38.7061 29.5845C39.0213 29.378 39.4278 29.5004 39.6106 29.8545C39.7946 30.207 39.686 30.6584 39.3682 30.8605L39.0636 31.0567L38.9683 31.1187L35.2285 33.5232L25.1574 40.0022C25.0528 40.0686 24.9389 40.101 24.8264 40.101M45.1182 29.5255C44.5779 29.1773 44.0495 28.8351 43.5238 28.4943C43.4271 28.4309 43.3278 28.3675 43.2298 28.304C42.4816 27.8202 41.744 27.3422 41.0262 26.8775C39.1815 25.6841 36.627 25.8493 33.8129 27.6564L16.3828 38.8678L20.2298 41.3579L50.3504 60.8597L59.2575 55.1302L61.4372 53.7287L62.445 53.0811L63.948 52.1134L64.0394 52.0544L67.1475 50.057V50.0555L67.7792 49.6499C67.9156 49.5614 68.0493 49.4891 68.1844 49.4079C68.3645 49.3017 68.5433 49.1985 68.7194 49.1055C68.8095 49.0583 68.8969 49.017 68.9856 48.9742C69.0902 48.9226 69.1948 48.8651 69.2981 48.8179C69.4266 48.7618 69.5497 48.7161 69.6768 48.6659C69.7603 48.632 69.8424 48.5981 69.9245 48.5671C70.2238 48.4579 70.5204 48.362 70.8104 48.2927C70.8157 48.2912 70.821 48.2898 70.8276 48.2883C71.111 48.2204 71.3865 48.1776 71.6593 48.1467C71.7136 48.1408 71.7692 48.1334 71.8235 48.129H71.8248C71.8447 48.1275 71.8632 48.129 71.8831 48.1275C72.095 48.1127 72.3042 48.1083 72.5095 48.1157C72.5757 48.1172 72.6432 48.1172 72.7094 48.1216C72.9716 48.1408 73.2285 48.1732 73.4762 48.2307C73.4921 48.2337 73.508 48.2396 73.5225 48.2425C73.7516 48.2986 73.9715 48.3709 74.1847 48.4564C74.2509 48.483 74.3145 48.5125 74.3793 48.542C74.5502 48.6187 74.7157 48.7072 74.8759 48.8031C74.9143 48.8282 74.9567 48.8429 74.9951 48.8665C66.1146 43.1193 54.6596 35.7021 45.1182 29.5255Z" fill="#DED6C9"/>
<path d="M95.6967 32.2281L95.6954 31.694L95.2822 31.9581L91.8616 34.1605L86.4758 37.6228C85.3263 38.3618 84.2298 39.334 83.1982 40.4507C80.4676 43.4099 78.256 47.4711 77.145 51.5735C76.6126 50.3167 75.8339 49.3858 74.8752 48.8032C74.7149 48.7073 74.5494 48.6188 74.3786 48.542C74.315 48.5125 74.2514 48.483 74.1852 48.4565C73.972 48.3709 73.7522 48.2986 73.5231 48.2426C73.5072 48.2396 73.4913 48.2337 73.4767 48.2308C73.2278 48.1747 72.9722 48.1408 72.71 48.1216C72.6438 48.1172 72.5762 48.1172 72.5087 48.1157C72.3047 48.1083 72.0955 48.1128 71.8836 48.1275C71.8651 48.129 71.8466 48.1305 71.8307 48.1319H71.8293C71.7724 48.1378 71.7168 48.1408 71.6598 48.1467C71.387 48.1777 71.1116 48.2205 70.8282 48.2883C70.8216 48.2898 70.8163 48.2913 70.8096 48.2927C70.5196 48.3621 70.2243 48.458 69.9237 48.5671C69.8429 48.5981 69.7595 48.632 69.6774 48.666C69.5503 48.7161 69.4258 48.7618 69.2973 48.8179C69.194 48.8651 69.0894 48.9226 68.9848 48.9743C68.8974 49.0171 68.8087 49.0584 68.7199 49.1056C68.5425 49.1985 68.3637 49.3018 68.1849 49.408C68.0485 49.4891 67.9148 49.5614 67.7797 49.6499L67.1467 50.0556V50.0571L64.04 52.0544L63.9473 52.1134L62.4455 53.0812L61.4378 53.7288L59.2567 55.1302L50.351 60.8598L50.3642 65.812L63.1024 57.6203L65.2821 56.2189L66.2912 55.5683L67.793 54.6035C67.8247 54.5829 67.8565 54.5681 67.8883 54.5475C68.173 54.3675 68.4538 54.2067 68.7319 54.0622C68.8219 54.015 68.9093 53.9722 68.9994 53.9279C69.2311 53.8158 69.4589 53.7125 69.684 53.6226C69.7701 53.5886 69.8535 53.5532 69.9383 53.5237C70.2362 53.4131 70.5302 53.3187 70.8176 53.2493C70.8308 53.2464 70.8428 53.2449 70.856 53.242C71.1301 53.1771 71.3976 53.1343 71.6625 53.1048C71.7207 53.0974 71.7764 53.0959 71.8346 53.0915H71.836C71.8598 53.0885 71.8836 53.0871 71.9061 53.0856C72.1074 53.0708 72.3074 53.0664 72.5007 53.0723C72.5775 53.0753 72.6557 53.0738 72.7298 53.0797C72.9867 53.0974 73.237 53.1313 73.4807 53.1859C73.5072 53.1918 73.535 53.2036 73.5615 53.2095C73.776 53.2626 73.9839 53.3305 74.1865 53.4101C74.2594 53.4396 74.3282 53.4706 74.3984 53.5031C74.5626 53.5783 74.7215 53.6624 74.8765 53.7568C74.9374 53.7937 74.9996 53.8276 75.0592 53.8674C75.2619 54.0032 75.4578 54.1492 75.6419 54.3188C75.6578 54.3321 75.6724 54.3498 75.6883 54.366C75.8578 54.5224 76.0167 54.695 76.1677 54.8809C76.2167 54.9399 76.2617 55.0018 76.308 55.0623C76.4285 55.2216 76.5424 55.3869 76.6497 55.5624C76.6907 55.6288 76.7331 55.6937 76.7728 55.763C76.9106 56.0064 77.0417 56.2602 77.1582 56.536C77.3555 55.8073 77.5873 55.0771 77.8508 54.3557C79.6293 49.4832 82.834 44.9308 86.489 42.5808L95.7073 36.6492L95.6967 32.2281Z" fill="#CEC7B9"/>
<path d="M81.8512 27.6787C81.9082 27.4869 81.8989 27.2716 81.8009 27.0813C81.6393 26.7656 81.3003 26.6505 81.0024 26.7715C80.9415 26.8497 80.8819 26.9323 80.8223 27.0134C80.2449 27.782 79.7258 28.6273 79.2848 29.5507L81.5586 28.0873C81.7056 27.9944 81.8009 27.8439 81.8512 27.6787Z" fill="#959596"/>
<path d="M84.7547 30.1564C84.9003 30.0635 84.997 29.913 85.046 29.7478C85.1043 29.556 85.095 29.3392 84.997 29.1489C84.8156 28.7963 84.409 28.6754 84.0925 28.8804L83.8992 29.0058L78.5134 32.468L78.2512 32.6392C78.2194 32.7896 78.173 32.9313 78.1479 33.0847C78.0711 33.539 78.0313 34.0288 77.985 34.5112L79.8323 33.3222L84.7547 30.1564Z" fill="#959596"/>
<path d="M88.1934 31.2196C88.012 30.8685 87.6081 30.7461 87.2889 30.9497L87.0956 31.0736L81.7097 34.5388L77.876 37.0038L77.8429 37.0274C77.8323 37.585 77.8296 38.1559 77.8349 38.7342L79.195 37.8579L83.03 35.3914L87.951 32.2272C88.098 32.1328 88.1947 31.9838 88.2437 31.8171C88.3007 31.6238 88.2914 31.4099 88.1934 31.2196Z" fill="#959596"/>
<path d="M38.9684 31.1188L39.0637 31.0569L39.3683 30.8607C39.6861 30.6571 39.7947 30.2072 39.6106 29.8546C39.4279 29.5006 39.0213 29.3781 38.7062 29.5847L37.7447 30.2028L35.0816 31.9154L33.9096 32.6693L24.4954 38.7249C24.1789 38.9284 24.0703 39.3798 24.253 39.7324C24.3749 39.9684 24.5974 40.1012 24.8265 40.1012C24.939 40.1012 25.0529 40.0687 25.1575 40.0009L35.2286 33.5234L38.9684 31.1188Z" fill="#959596"/>
<path d="M42.259 33.1255L42.3398 33.0739L42.5649 32.9279C42.5901 32.9116 42.606 32.8866 42.6285 32.8659C42.8894 32.6461 42.9768 32.2449 42.8086 31.9218C42.6245 31.5678 42.2193 31.4453 41.9028 31.6518L41.3254 32.0236L41.2989 32.0413L40.9401 32.2714L37.105 34.7379L27.6907 40.7935C27.3742 40.9971 27.2656 41.4485 27.4484 41.8011C27.5715 42.0371 27.794 42.1699 28.0231 42.1699C28.1343 42.1699 28.2482 42.1374 28.3528 42.0695L38.4239 35.592L42.259 33.1255Z" fill="#959596"/>
<path d="M39.1124 39.2755L41.6219 37.6617L43.7182 36.3119L44.82 35.6038L45.4557 35.1952L45.7616 34.999C45.7868 34.9828 45.8013 34.9547 45.8252 34.937C46.0847 34.7143 46.1721 34.316 46.0039 33.9914C45.8185 33.6389 45.4133 33.5164 45.0995 33.7215L44.5221 34.0918L44.1367 34.3411L43.4997 34.7512L43.3064 34.8765L40.3016 36.8076L37.7934 38.4214L37.7696 38.4376L30.8874 42.8646C30.5709 43.0667 30.4623 43.5181 30.645 43.8707C30.7682 44.1067 30.9906 44.2395 31.2197 44.2395C31.3323 44.2395 31.4449 44.2085 31.5495 44.1407L38.6701 39.5588L39.1124 39.2755Z" fill="#959596"/>
<path d="M42.3074 41.3442L43.3139 40.6966L44.8169 39.7289L44.9096 39.6699L48.015 37.6725L48.6507 37.2624L48.9553 37.0677C48.9818 37.0514 48.9963 37.0234 49.0202 37.0042C49.2797 36.7815 49.3658 36.3846 49.1976 36.0601C49.0135 35.7075 48.6083 35.5836 48.2931 35.7901L47.7171 36.1604L47.3304 36.4097L46.6961 36.8183L43.9773 38.5664L43.4966 38.8762L40.9884 40.4901L39.1742 41.6569L34.0824 44.9333C33.7645 45.1354 33.6559 45.5868 33.8387 45.9394C33.9619 46.1754 34.1843 46.3082 34.4134 46.3082C34.526 46.3082 34.6399 46.2772 34.7445 46.2093L40.1277 42.7456L42.3074 41.3442Z" fill="#959596"/>
<path d="M45.503 43.413L46.5094 42.7654L48.0125 41.7977L48.1052 41.7387L51.2119 39.7413L51.8463 39.3326L52.1522 39.1364C52.1787 39.1202 52.1932 39.0922 52.2157 39.073C52.4753 38.8517 52.5627 38.4534 52.3945 38.1289C52.2104 37.7763 51.8039 37.6539 51.49 37.8589L50.914 38.2292L50.5273 38.4785L49.8916 38.8871L46.7862 40.8845L46.6935 40.945L45.1905 41.9113L44.184 42.5589L42.0043 43.9603L37.2793 47.0006C36.9614 47.2027 36.8528 47.6541 37.0356 48.0067C37.1587 48.2427 37.3812 48.3755 37.6103 48.3755C37.7229 48.3755 37.8368 48.3445 37.9414 48.2767L43.3232 44.8144L45.503 43.413Z" fill="#959596"/>
<path d="M48.698 45.4816L49.7058 44.834L51.2075 43.8663L51.3002 43.8073L54.4069 41.8099L55.0413 41.4013L55.3472 41.2051C55.3736 41.1888 55.3895 41.1608 55.4121 41.1416C55.6716 40.9189 55.7577 40.522 55.5895 40.1975C55.4081 39.8449 55.0029 39.724 54.685 39.9275L54.109 40.2978L53.7223 40.5471L53.088 40.9557L49.9812 42.9531L49.8885 43.0136L48.3868 43.9784L47.379 44.6275L45.1993 46.0289L40.4729 49.0692C40.1564 49.2713 40.0478 49.7227 40.2306 50.0753C40.3537 50.3113 40.5762 50.4441 40.8053 50.4441C40.9179 50.4441 41.0304 50.4131 41.1351 50.3453L46.5182 46.883L48.698 45.4816Z" fill="#959596"/>
<path d="M51.8935 47.5504L52.9013 46.9028L54.403 45.9351L54.4957 45.8761L57.6025 43.8787H57.6038L58.2355 43.4701L58.5427 43.2739C58.5679 43.2562 58.5838 43.2296 58.6063 43.2105C58.8658 42.9877 58.9519 42.5909 58.7837 42.2663C58.6023 41.9138 58.1984 41.7928 57.8806 41.9964L57.3045 42.3667L56.9178 42.616L56.2835 43.0246H56.2822L53.1768 45.022L53.0841 45.0825L51.5823 46.0472L50.5746 46.6963L48.3948 48.0977L43.6685 51.1395C43.352 51.3416 43.2434 51.793 43.4261 52.1456C43.5493 52.3816 43.7718 52.5144 44.0009 52.5144C44.1134 52.5144 44.226 52.4834 44.3306 52.4156L49.7138 48.9518L51.8935 47.5504Z" fill="#959596"/>
<path d="M55.0892 49.6191L56.097 48.9715L57.5987 48.0038L57.6914 47.9448L60.7982 45.9474L60.7995 45.9459L61.4312 45.5388L61.7384 45.3426C61.7636 45.3249 61.7794 45.2983 61.802 45.2791C62.0615 45.0564 62.1476 44.6595 61.9794 44.335C61.7967 43.9824 61.3928 43.8615 61.0763 44.0651L60.5002 44.4353L60.1122 44.6846L59.4792 45.0932H59.4779L56.3724 47.0906L56.2797 47.1511L54.778 48.1159L53.7702 48.765L51.5905 50.1664L46.8642 53.2082C46.5477 53.4103 46.4391 53.8617 46.6218 54.2143C46.745 54.4503 46.9675 54.5831 47.1966 54.5831C47.3091 54.5831 47.4217 54.5521 47.5263 54.4842L52.9095 51.0205L55.0892 49.6191Z" fill="#959596"/>
<path d="M64.2711 46.1342L63.6964 46.5045H63.6951L63.3071 46.7538L62.6754 47.1609H62.6741L59.566 49.1598L59.4746 49.2188L57.9729 50.1851L56.9638 50.8341L54.7854 52.2356L50.059 55.2744C49.7412 55.478 49.6326 55.9294 49.8154 56.282C49.9385 56.518 50.161 56.6508 50.3901 56.6508C50.5027 56.6508 50.6166 56.6183 50.7212 56.5519L56.1043 53.0897L58.2841 51.6883L59.2919 51.0392L60.7936 50.0729L60.885 50.0139L63.993 48.0151L63.9944 48.0136L64.6274 47.6079L64.9333 47.4102C64.9598 47.394 64.9743 47.3675 64.9982 47.3468C65.2564 47.1255 65.3438 46.7272 65.1756 46.4042C64.9942 46.0501 64.5876 45.9292 64.2711 46.1342Z" fill="#959596"/>
<path d="M54.8317 6.80875C55.1337 6.57862 55.2105 6.11837 55.0052 5.7835C54.7973 5.44716 54.3868 5.36308 54.0849 5.59025C48.0448 10.1913 46.6822 17.5613 46.4597 22.1373C46.3485 24.4238 46.5166 26.0244 46.5391 26.2103C46.5603 26.3873 46.6385 26.5393 46.7471 26.6528C46.8662 26.7753 47.0238 26.852 47.1947 26.852C47.2225 26.852 47.2529 26.8505 47.2821 26.8461C47.6449 26.793 47.8992 26.4212 47.8515 26.017C47.8502 25.9993 47.8171 25.6748 47.7906 25.16C47.7363 24.1126 47.7151 22.1875 48.025 19.87C48.5838 15.6908 50.2365 10.3093 54.8317 6.80875Z" fill="#BCBDBD"/>
<path d="M58.1838 9.05014C58.4858 8.82001 58.5626 8.35976 58.3573 8.02489C58.1494 7.68708 57.7362 7.60447 57.4369 7.83164C54.2825 10.2347 52.4193 13.396 51.3122 16.5219C50.5441 18.6845 50.1389 20.8162 49.9442 22.6764C49.6145 25.8539 49.8634 28.223 49.8912 28.4517C49.9349 28.8234 50.2197 29.0934 50.5468 29.0934C50.5746 29.0934 50.6037 29.0919 50.6342 29.0875C50.997 29.0344 51.2513 28.6626 51.2036 28.2584C51.197 28.1965 50.8712 25.1665 51.491 21.3384C51.7677 19.6375 52.2365 17.7861 53.002 15.9569C53.1278 15.6575 53.2615 15.358 53.4032 15.06C54.4587 12.8502 55.9763 10.7318 58.1838 9.05014Z" fill="#BCBDBD"/>
<path d="M61.5359 11.2904C61.8378 11.0603 61.9146 10.6 61.7093 10.2651C61.6127 10.1073 61.4696 10.0114 61.3147 9.97009C61.1386 9.92436 60.9492 9.95092 60.789 10.0719C60.401 10.3669 60.0566 10.6885 59.7057 11.0071C57.6293 12.8865 56.1858 15.1067 55.2032 17.3814C54.9198 18.0364 54.6655 18.6943 54.451 19.3478C54.2193 20.0618 54.0299 20.7669 53.8696 21.4632C52.7626 26.2575 53.2062 30.3851 53.2433 30.6919C53.287 31.0637 53.5717 31.3336 53.8988 31.3336C53.9266 31.3336 53.9557 31.3321 53.9862 31.3277C54.349 31.2746 54.6046 30.9029 54.5556 30.4987C54.549 30.4308 54.1477 26.6868 55.0959 22.2568C55.3833 20.9174 55.7951 19.5248 56.3778 18.1426C56.3844 18.1264 56.3924 18.1116 56.399 18.0954C57.4584 15.6038 59.0648 13.1712 61.5359 11.2904" fill="#BCBDBD"/>
<path d="M64.888 13.532C65.186 13.3048 65.2615 12.8548 65.0668 12.52C65.0641 12.517 65.0641 12.5111 65.0615 12.5067C64.8562 12.1704 64.4417 12.0878 64.1411 12.3135C63.1519 13.0673 62.3097 13.9037 61.5548 14.7814C60.2742 16.2728 59.3049 17.9044 58.5805 19.5669V19.5684C57.9859 20.9344 57.5449 22.3093 57.235 23.6413C56.1081 28.4637 56.5583 32.6252 56.5941 32.9335C56.6391 33.3052 56.9225 33.5752 57.2496 33.5752C57.2801 33.5752 57.3079 33.5737 57.3383 33.5693C57.6999 33.5162 57.9568 33.1444 57.9078 32.7402C57.9012 32.6724 57.4959 28.893 58.46 24.4365C58.75 23.097 59.1698 21.7074 59.7551 20.3281V20.3266C60.4928 18.5977 61.5085 16.9086 62.8844 15.4025C63.4869 14.7401 64.1358 14.1058 64.888 13.532Z" fill="#BCBDBD"/>
<path d="M68.24 15.7721C68.5419 15.542 68.6187 15.0817 68.4135 14.7469C68.2069 14.4105 67.7937 14.3279 67.4931 14.5536C66.578 15.2499 65.7967 16.0214 65.0856 16.8269C63.7309 18.3552 62.7112 20.0354 61.9577 21.754C61.3604 23.1156 60.9141 24.489 60.5989 25.821C59.4548 30.6699 59.9103 34.8639 59.9461 35.1737C59.9911 35.5454 60.2745 35.8154 60.6016 35.8154C60.6321 35.8154 60.6599 35.8139 60.6903 35.8095C61.0518 35.7564 61.3088 35.3846 61.2598 34.9804C61.2518 34.9126 60.8426 31.0992 61.8252 26.6147C62.1192 25.2767 62.5417 23.8886 63.1323 22.5137V22.5122C63.8739 20.7833 64.8962 19.0987 66.2774 17.5969C66.8694 16.9537 67.5037 16.3327 68.24 15.7721Z" fill="#BCBDBD"/>
<path d="M71.5922 18.0107C71.8941 17.7806 71.9709 17.3203 71.7657 16.9855C71.5591 16.6477 71.1446 16.5651 70.8453 16.7922C69.9474 17.4767 69.1846 18.235 68.4868 19.0271C67.14 20.5613 66.1362 22.2504 65.4038 23.9837H65.4025C64.8238 25.3556 64.3934 26.7423 64.1021 28.0862C63.0215 33.0428 63.5922 37.3651 63.6373 37.6822C63.6889 38.0451 63.971 38.3047 64.2901 38.3047C64.3259 38.3047 64.359 38.3018 64.3934 38.2959C64.755 38.2325 65.0013 37.8548 64.9456 37.4536C64.9364 37.3828 64.4305 33.4632 65.3416 28.8887C65.6104 27.536 66.0143 26.1331 66.5838 24.7464C67.3015 22.9998 68.304 21.3018 69.6773 19.7986C70.2547 19.1673 70.8744 18.558 71.5922 18.0107Z" fill="#BCBDBD"/>
<path d="M74.9442 20.2524C75.2461 20.0222 75.3229 19.562 75.1177 19.2271C74.9097 18.8908 74.4966 18.8082 74.1973 19.0339C73.3166 19.7036 72.5751 20.453 71.897 21.2363C70.5648 22.7735 69.5901 24.4817 68.8962 26.2445C68.3493 27.6312 67.9494 29.0415 67.6925 30.4119C67.3415 32.2883 67.2263 34.0704 67.2157 35.6134C67.2117 36.2049 67.2237 36.7537 67.2462 37.2597C67.3256 39.0579 67.523 40.2823 67.5534 40.4461C67.6157 40.7986 67.8924 41.0421 68.201 41.0421C68.2434 41.0421 68.2871 41.0376 68.3294 41.0273C68.6883 40.9491 68.9227 40.5626 68.8512 40.1628C68.8446 40.1186 68.6022 38.6301 68.5705 36.4454C68.5625 35.9099 68.5705 35.3346 68.5956 34.7253C68.6393 33.6367 68.7439 32.4565 68.9492 31.2247C69.1783 29.8425 69.5464 28.4145 70.0801 27.0102C70.7568 25.2311 71.7249 23.511 73.0836 22.0049C73.6424 21.3838 74.2436 20.7849 74.9442 20.2524Z" fill="#BCBDBD"/>
<path d="M78.4695 21.4668C78.2643 21.1305 77.8484 21.0479 77.5491 21.2736C76.6857 21.93 75.9613 22.6676 75.3005 23.4391C73.9789 24.9807 73.0268 26.7037 72.3606 28.4857V28.4872C71.8362 29.8871 71.4668 31.3151 71.2377 32.7062C71.2178 32.8257 71.2032 32.9407 71.1847 33.0588C71.092 33.6842 71.0231 34.2964 70.9741 34.8968C70.9026 35.7672 70.8722 36.6007 70.8708 37.3855C70.8695 37.9755 70.8801 38.5435 70.9053 39.0672C71.0152 41.3271 71.3184 42.8893 71.3568 43.0811C71.4257 43.4248 71.6998 43.6564 72.0018 43.6564C72.0494 43.6564 72.0984 43.6505 72.1488 43.6373C72.505 43.5487 72.7288 43.1534 72.648 42.7566C72.6374 42.7049 72.2812 40.8506 72.2269 38.216C72.2163 37.6731 72.2136 37.1096 72.2348 36.5077C72.2613 35.6964 72.3368 34.8319 72.4467 33.9512C72.4653 33.8067 72.4772 33.668 72.497 33.522C72.5659 33.0352 72.656 32.5439 72.7579 32.0483C72.9499 31.1145 73.2122 30.1792 73.5445 29.2528C74.1908 27.4501 75.1337 25.7153 76.4844 24.2047C77.0274 23.597 77.6127 23.0128 78.296 22.4921C78.598 22.2619 78.6748 21.8031 78.4695 21.4668Z" fill="#BCBDBD"/>
<defs>
<linearGradient id="paint0_linear_217_1827" x1="61.911" y1="66.8601" x2="91.3686" y2="33.3784" gradientUnits="userSpaceOnUse">
<stop stop-color="#D3D4D6"/>
<stop offset="1" stop-color="white"/>
</linearGradient>
</defs>
</svg>
