<svg width="107" height="95" viewBox="0 0 107 95" fill="none" xmlns="http://www.w3.org/2000/svg">
<path d="M107 55.4032C106.988 59.5512 106.977 59.4579 106.966 63.6059C106.943 71.5379 101.767 79.4592 91.4228 85.5112C70.6068 97.6899 36.7416 97.6899 15.7918 85.5112C5.24413 79.3805 -0.0224405 71.3339 7.1866e-05 63.2992L0.0358274 55.0965C0.0119907 63.1299 5.27989 71.1779 15.8263 77.3085C36.7773 89.4872 70.6412 89.4872 91.4572 77.3085C101.801 71.2552 106.977 63.3352 107 55.4032Z" fill="#D2D2D3"/>
<path d="M91.2151 33.1963C112.166 45.3763 112.276 65.1256 91.4574 77.3083C70.6415 89.487 36.7776 89.4883 15.8265 77.3083C-5.13118 65.1256 -5.24109 45.3763 15.5749 33.1963C36.3949 21.0136 70.2587 21.0136 91.2151 33.1963Z" fill="white"/>
<mask id="mask0_217_3554" style="mask-type:alpha" maskUnits="userSpaceOnUse" x="4" y="41" width="61" height="28">
<path d="M4.52856 41.578H64.6789V68.6367H4.52856V41.578Z" fill="white"/>
</mask>
<g mask="url(#mask0_217_3554)">
<path d="M4.52856 52.4234L43.573 41.578L64.6789 58.6607L29.271 68.6367L4.52856 52.4234Z" fill="url(#paint0_linear_217_3554)"/>
</g>
<path d="M46.3409 34.2587C45.7053 34.176 45.21 33.812 44.8617 33.4413L39.8242 36.368C39.7527 36.4093 39.6786 36.4413 39.6004 36.464C38.7225 36.7173 34.363 37.8387 32.8004 35.7667C32.5355 36.252 32.2164 37.1413 32.0257 37.976C31.9211 38.4387 31.5119 38.752 31.059 38.752C30.9862 38.752 30.9107 38.744 30.8365 38.7267C30.3015 38.6027 29.9678 38.0667 30.091 37.5293C30.4776 35.8227 31.2206 33.7427 32.562 33.5147C32.9567 33.4467 33.7181 33.4893 34.359 34.5227C34.7749 35.192 37.0777 35.0853 38.9396 34.5733L44.6392 31.2613C44.8776 31.1227 45.1597 31.0893 45.4219 31.1693C45.6841 31.2493 45.9026 31.4333 46.0244 31.68C46.1542 31.9307 46.4389 32.256 46.5952 32.2747C46.6283 32.2627 46.8057 32.2253 47.0706 31.9187C48.6584 30.092 50.65 28.3053 50.7335 28.2307C51.0394 27.9573 51.479 27.8987 51.8419 28.0853C52.206 28.2693 52.4206 28.66 52.3835 29.068L52.3107 29.872L53.9064 29.1827L57.4316 27.408C57.9229 27.16 58.5175 27.3627 58.7624 27.856C59.0088 28.3493 58.8101 28.9507 58.3175 29.1973L54.7407 30.9973L51.5611 32.372C51.2393 32.5093 50.8699 32.4667 50.5865 32.2613C50.3455 32.0853 50.1985 31.8107 50.1786 31.516C49.6516 32.0453 49.0821 32.6427 48.5657 33.236C47.7195 34.2093 46.8878 34.328 46.3409 34.2587ZM45.4298 48.2L42.8621 48.388C42.4251 48.9653 41.6199 49.5533 40.3367 49.5533C39.6256 49.5533 39.4058 50.0467 39.3555 50.1987C39.2575 50.4907 39.0284 50.732 38.7397 50.8347C38.4497 50.9347 38.1279 50.9107 37.8696 50.744L36.8288 50.0707L34.6901 52.384C34.4941 52.596 34.2293 52.7027 33.9631 52.7027C33.7207 52.7027 33.4771 52.6147 33.2864 52.4347C32.8851 52.0587 32.8626 51.4253 33.2361 51.0213L35.9402 48.096C36.2673 47.744 36.7996 47.676 37.2035 47.936L38.0974 48.5147C38.5689 47.9987 39.2972 47.5533 40.3367 47.5533C41.0955 47.5533 41.3074 47.1493 41.3418 47.0693C41.4888 46.728 41.8292 46.4573 42.1973 46.4307L45.2868 46.2053C45.8245 46.16 46.3091 46.5787 46.3489 47.1307C46.3886 47.6813 45.9781 48.16 45.4298 48.2M28.8236 24.1267C28.5297 24.1267 28.237 23.9947 28.041 23.7427C27.7033 23.308 27.7788 22.68 28.2118 22.34C29.5798 21.2613 34.2015 17.9027 36.2302 19.9453C36.8963 20.6173 36.9175 20.6053 38.1239 19.8213C38.4642 19.5987 38.8456 19.352 39.2892 19.104C41.2028 18.0333 43.3772 16.2893 43.3984 16.272C43.7745 15.9707 44.3108 15.9813 44.6723 16.3L46.0721 17.532C47.1567 17.2493 49.8065 16.4773 51.2301 15.3627C51.9319 14.8147 52.5755 14.0067 53.092 13.3573C53.8812 12.3627 54.4546 11.6507 55.3313 11.9573C56.1854 12.26 56.1854 13.2893 56.1854 13.6773V15.4773C56.1854 16.0293 55.7405 16.4773 55.1922 16.4773C54.644 16.4773 54.1991 16.0293 54.1991 15.4773V15.1573C53.7038 15.7613 53.1238 16.4147 52.4497 16.9427C50.2859 18.636 46.1966 19.564 46.0231 19.6027C45.7159 19.6733 45.3927 19.5893 45.1544 19.38L43.9798 18.3467C43.1495 18.98 41.6623 20.064 40.2546 20.852C39.8547 21.076 39.5104 21.3 39.2018 21.5013C37.9968 22.284 36.6288 23.1747 34.8252 21.36C34.4027 20.9307 31.831 22.0307 29.4355 23.9147C29.254 24.0573 29.0382 24.1267 28.8236 24.1267M49.4172 46.768L49.3748 46.6867L47.5314 47.7707L47.0097 46.7653L48.8517 45.6813L48.7987 45.58L57.507 35.4813L63.1775 32.1427L60.4072 13.7813C59.2709 6.25735 54.1659 0.0773425 49.0292 9.17951e-06L13.6278 10.296C18.7646 10.3733 23.8709 16.5533 25.0045 24.076L31.7357 68.6733L67.1384 58.376L64.8143 42.9827L62.2015 44.5213L49.4172 46.768Z" fill="#F4EEE4"/>
<path d="M13.6283 10.2959L14.1712 13.8945C17.956 13.9519 21.7063 18.5065 22.5405 24.0398L29.2717 68.6359L31.7362 68.6732L25.005 24.0759C23.8701 16.5532 18.7651 10.3732 13.6283 10.2959Z" fill="#CDC6BD"/>
<path d="M34.8254 21.3596C36.6291 23.1756 37.997 22.2836 39.2021 21.501C39.5106 21.301 39.8536 21.0756 40.2549 20.8516C41.6626 20.0636 43.1497 18.9796 43.98 18.3476L45.1533 19.3796C45.3917 19.589 45.7161 19.673 46.0233 19.6036C46.1955 19.565 50.2861 18.6356 52.45 16.9423C53.124 16.4156 53.704 15.7623 54.1993 15.1583V15.477C54.1993 16.029 54.6442 16.477 55.1925 16.477C55.7407 16.477 56.1857 16.029 56.1857 15.477V13.6783C56.1857 13.2903 56.1857 12.2596 55.3302 11.9583C54.4549 11.6503 53.8815 12.3623 53.0909 13.357C52.5744 14.0063 51.9322 14.8143 51.2303 15.3623C49.8067 16.477 47.1569 17.249 46.0723 17.5316L44.6726 16.301C44.3111 15.981 43.7734 15.9703 43.3987 16.2716C43.3775 16.289 41.203 18.033 39.2895 19.1036C38.8459 19.3516 38.4645 19.5996 38.1241 19.821C36.9177 20.605 36.8966 20.617 36.2305 19.945C34.2017 17.9036 29.58 21.2623 28.2108 22.3396C27.7791 22.6796 27.7036 23.3076 28.0413 23.7436C28.2372 23.9956 28.5299 24.1276 28.8239 24.1276C29.0384 24.1276 29.2529 24.057 29.4357 23.9156C31.8313 22.0303 34.403 20.9316 34.8254 21.3596Z" fill="#8B7965"/>
<path d="M48.5659 33.2365C49.0824 32.6432 49.6518 32.0445 50.1789 31.5152C50.1974 31.8099 50.3457 32.0845 50.5867 32.2619C50.8701 32.4672 51.2396 32.5099 51.5614 32.3725L54.7409 30.9965L58.3178 29.1979C58.8091 28.9512 59.009 28.3499 58.7627 27.8552C58.5177 27.3632 57.9218 27.1605 57.4305 27.4085L53.9067 29.1832L52.3109 29.8725L52.3838 29.0685C52.4208 28.6592 52.2063 28.2699 51.8421 28.0845C51.4793 27.8992 51.0396 27.9579 50.7337 28.2299C50.6503 28.3059 48.6586 30.0925 47.0708 31.9192C46.8047 32.2259 46.6285 32.2632 46.5954 32.2752C46.4392 32.2565 46.1545 31.9312 46.0247 31.6805C45.9028 31.4325 45.6843 31.2485 45.4221 31.1699C45.1599 31.0899 44.8765 31.1232 44.6395 31.2619L38.9386 34.5725C37.078 35.0859 34.7751 35.1925 34.358 34.5232C33.7184 33.4885 32.9569 33.4459 32.5623 33.5139C31.2208 33.7419 30.4779 35.8232 30.0899 37.5299C29.9681 38.0672 30.3018 38.6032 30.8368 38.7272C30.9109 38.7432 30.9864 38.7525 31.0593 38.7525C31.5122 38.7525 31.9213 38.4379 32.026 37.9752C32.2167 37.1419 32.5358 36.2525 32.8007 35.7659C34.3633 37.8379 38.7214 36.7165 39.5994 36.4632C39.6788 36.4405 39.753 36.4085 39.8232 36.3685L44.862 33.4405C45.2103 33.8112 45.7055 34.1765 46.3412 34.2592C46.8868 34.3285 47.7197 34.2085 48.5659 33.2365Z" fill="#8B7965"/>
<path d="M45.2869 46.2053L42.1974 46.4306C41.8293 46.4573 41.489 46.728 41.342 47.0693C41.3075 47.1493 41.0943 47.5533 40.3369 47.5533C39.2973 47.5533 38.569 47.9986 38.0976 48.5146L37.2037 47.936C36.7998 47.676 36.2674 47.744 35.9403 48.096L33.2362 51.0213C32.8628 51.4253 32.8853 52.0586 33.2865 52.4346C33.4772 52.6146 33.7209 52.7026 33.9632 52.7026C34.2281 52.7026 34.4942 52.596 34.6902 52.384L36.8289 50.0706L37.8698 50.744C38.128 50.9106 38.4485 50.9346 38.7398 50.8346C39.0285 50.7333 39.2576 50.4906 39.3556 50.1986C39.4059 50.0466 39.6257 49.5533 40.3369 49.5533C41.6187 49.5533 42.4252 48.9653 42.8609 48.388L45.43 48.2C45.9769 48.16 46.3887 47.6813 46.349 47.1306C46.3093 46.5786 45.8246 46.16 45.2869 46.2053Z" fill="#8B7965"/>
<path d="M47.0101 46.7659L47.5319 47.7712L49.3739 46.6859L48.8522 45.6819L47.0101 46.7659Z" fill="#736352"/>
<path d="M57.1141 37.9267L57.5074 35.4814L48.7991 45.58L48.852 45.6814L50.1458 44.92L57.1141 37.9267Z" fill="#EBD8B4"/>
<path d="M52.5284 44.8296L49.374 46.6869L49.4164 46.7683L62.2021 44.5216L59.4622 42.4483L52.5284 44.8296Z" fill="#EBD8B4"/>
<path d="M49.0444 46.0256L50.1462 44.9189L48.8511 45.6816L49.3742 46.6869L52.5285 44.8296L49.0444 46.0256Z" fill="#EBD8B4"/>
<path d="M57.1141 37.9267L50.1458 44.92L49.0441 46.0254L52.5282 44.8294L59.462 42.4494L57.1141 37.9267Z" fill="#DDCCA9"/>
<path d="M101.883 13.0276L99.1481 10.9689L98.7574 13.4156L101.101 17.9356L103.844 20.0089L104.236 17.5609L101.883 13.0276Z" fill="#BEA690"/>
<path d="M63.178 32.1428L57.5076 35.4815L57.1143 37.9268L58.3882 37.1762L63.4839 34.1762L91.4774 17.6988L91.868 15.2522L63.178 32.1428Z" fill="#FFF243"/>
<path d="M91.4775 17.6981L63.4841 34.1755L58.3883 37.1768L57.1144 37.9261L59.4623 42.4488L60.7362 41.6981L64.3024 39.5981L93.8228 22.2195V22.2181L91.4775 17.6981Z" fill="#FDD100"/>
<path d="M96.3892 24.3967L93.8228 22.2194L64.3038 39.598L60.7362 41.6994L59.4623 42.4487L62.2022 44.522L64.8136 42.9834L96.5666 24.2927L96.3892 24.3967Z" fill="#DCA600"/>
<path d="M96.0593 15.0009L98.7568 13.4156L99.1475 10.9689L94.4106 13.7583L94.0173 16.2023L96.0593 15.0009Z" fill="#EE8570"/>
<path d="M94.0175 16.2027L94.5869 17.2987L94.6015 17.3107L96.3733 20.7187L96.715 20.516L101.102 17.9347L98.757 13.4147L96.0595 15.0014L94.0175 16.2027Z" fill="#E95A4F"/>
<path d="M98.9123 19.2236L96.3737 20.7183L96.3829 20.7396L99.1056 22.7983L103.845 20.0089L101.101 17.9356L98.9123 19.2236Z" fill="#C34941"/>
<path d="M93.5195 16.4958L94.0175 16.2024L94.4108 13.7584L91.8682 15.2518L91.4775 17.6984L93.5195 16.4958Z" fill="white"/>
<path d="M94.0175 16.2033L93.5195 16.4953L91.4775 17.698L93.8241 22.218V22.2193L96.364 20.7233L94.5869 17.2993L94.0175 16.2033Z" fill="#E3EEF4"/>
<path d="M96.3646 20.7236L93.8234 22.2196L96.5659 24.2929L99.1058 22.7983L96.3832 20.7396L96.3646 20.7236Z" fill="#CAD4D9"/>
<path d="M96.3892 24.3967L96.5666 24.2927L93.8228 22.2194L96.3892 24.3967Z" fill="#CAD4D9"/>
<path d="M94.5863 17.2991L96.3648 20.7231L96.3741 20.7177L94.6022 17.3111L94.5863 17.2991Z" fill="#A78B00"/>
<path d="M96.3828 20.7392L96.3735 20.7179L96.3641 20.7232L96.3828 20.7392Z" fill="#A78B00"/>
<defs>
<linearGradient id="paint0_linear_217_3554" x1="26.7202" y1="47.3297" x2="39.7727" y2="60.7403" gradientUnits="userSpaceOnUse">
<stop stop-color="white"/>
<stop offset="1" stop-color="#C4C6C8"/>
</linearGradient>
</defs>
</svg>
