<svg width="107" height="95" viewBox="0 0 107 95" fill="none" xmlns="http://www.w3.org/2000/svg">
<path d="M107 55.1394C106.989 59.3132 106.976 59.2219 106.967 63.3983C106.943 71.386 101.765 79.3616 91.4216 85.4524C70.6072 97.7159 36.7424 97.7159 15.7903 85.4524C5.24274 79.2797 -0.0224402 71.1779 7.18831e-05 63.0895L0.0371504 54.8306C0.0133141 62.919 5.27982 71.0235 15.8261 77.1935C36.7769 89.457 70.6403 89.457 91.4561 77.1935C101.798 71.1001 106.976 63.1258 107 55.1394Z" fill="#D2D2D3"/>
<path d="M91.2154 32.7787C112.165 45.0422 112.274 64.9296 91.4565 77.193C70.6407 89.4565 36.7773 89.4565 15.8265 77.193C-5.13096 64.9296 -5.23954 45.0422 15.5735 32.7814C36.3946 20.5152 70.258 20.5153 91.2154 32.7787Z" fill="white"/>
<mask id="mask0_438_1064" style="mask-type:alpha" maskUnits="userSpaceOnUse" x="0" y="23" width="107" height="64">
<path d="M15.5727 32.7814C-5.24033 45.0422 -5.13172 64.9296 15.827 77.1931C36.7765 89.4566 70.6413 89.4566 91.4557 77.1931C112.274 64.9296 112.164 45.0422 91.2147 32.7788C80.736 26.6464 67.0327 23.5815 53.3454 23.5815C39.6567 23.5815 25.9839 26.6477 15.5727 32.7814" fill="white"/>
</mask>
<g mask="url(#mask0_438_1064)">
<mask id="mask1_438_1064" style="mask-type:alpha" maskUnits="userSpaceOnUse" x="20" y="9" width="76" height="49">
<path d="M20.0869 9.72988H95.6746V57.2015H20.0869V9.72988Z" fill="white"/>
</mask>
<g mask="url(#mask1_438_1064)">
<path d="M20.0869 44.2206L76.1129 9.7312L95.6746 24.9307L42.2653 57.2023L20.0869 44.2206Z" fill="url(#paint0_linear_438_1064)"/>
</g>
<mask id="mask2_438_1064" style="mask-type:alpha" maskUnits="userSpaceOnUse" x="73" y="28" width="70" height="45">
<path d="M73.8577 28.5691H142.602V72.0356H73.8577V28.5691Z" fill="white"/>
</mask>
<g mask="url(#mask2_438_1064)">
<path d="M73.8577 63.0609L129.882 28.5701L142.602 39.7636L89.1923 72.0353L73.8577 63.0609Z" fill="url(#paint1_linear_438_1064)"/>
</g>
<mask id="mask3_438_1064" style="mask-type:alpha" maskUnits="userSpaceOnUse" x="36" y="51" width="33" height="20">
<path d="M36.8201 51.3216H68.5939V70.756H36.8201V51.3216Z" fill="white"/>
</mask>
<g mask="url(#mask3_438_1064)">
<path d="M68.3462 66.6896C66.8127 71.0553 58.5667 72.0648 49.9287 68.9436C41.292 65.8264 35.5356 59.757 37.0664 55.3913C38.5998 51.0256 46.8485 50.0134 55.4839 53.1333C64.1232 56.2505 69.8797 62.3212 68.3462 66.6896Z" fill="url(#paint2_radial_438_1064)"/>
</g>
<mask id="mask4_438_1064" style="mask-type:alpha" maskUnits="userSpaceOnUse" x="59" y="50" width="22" height="14">
<path d="M59.2247 50.5376H80.3133V63.438H59.2247V50.5376Z" fill="white"/>
</mask>
<g mask="url(#mask4_438_1064)">
<path d="M80.1504 60.7371C79.1347 63.6368 73.659 64.3054 67.925 62.234C62.1937 60.1652 58.3706 56.1351 59.389 53.2407C60.406 50.341 65.8817 49.6698 71.6157 51.7412C77.347 53.81 81.1674 57.84 80.1504 60.7371" fill="url(#paint3_radial_438_1064)"/>
</g>
</g>
<path d="M20.2002 32.6569L16.1732 35.029C16.1785 35.0263 16.1838 35.025 16.1891 35.021C16.2593 34.9793 16.3374 34.9498 16.4129 34.9136C16.5096 34.8666 16.6049 34.8129 16.7069 34.7739C16.7824 34.7458 16.8631 34.7296 16.9413 34.7055C17.0499 34.6733 17.1558 34.6357 17.2684 34.6115C17.3558 34.5941 17.4485 34.5887 17.5372 34.5779C17.6471 34.5632 17.7544 34.543 17.8682 34.5363C17.9821 34.531 18.1013 34.5404 18.2192 34.5444C18.3145 34.5471 18.4072 34.5417 18.5039 34.5511C18.6641 34.5659 18.8296 34.5954 18.9965 34.6276C19.0561 34.6384 19.113 34.6424 19.1726 34.6545C19.3832 34.7015 19.5977 34.7646 19.8162 34.837C19.8347 34.8438 19.852 34.8464 19.8705 34.8532C20.3459 35.0169 20.8385 35.2452 21.3431 35.5392L22.9957 36.5071C22.5998 36.1151 22.2263 35.6815 21.8688 35.2304C21.2371 34.4383 20.677 33.5698 20.2002 32.6569Z" fill="#D93D7C"/>
<path d="M35.041 36.4443L34.3511 36.0416L35.9534 35.0965C37.1413 34.3997 37.8815 32.9069 37.8855 30.7885C37.8961 26.5154 34.9298 21.3053 31.2603 19.1573C29.413 18.0766 27.7445 17.9773 26.5341 18.6874L20.5022 22.2423C20.5896 22.1913 20.6836 22.1537 20.7776 22.1121C20.8386 22.0852 20.8968 22.049 20.9604 22.0262C21.0663 21.9846 21.1802 21.9591 21.2914 21.9282C21.3524 21.9134 21.4106 21.8892 21.4742 21.8758C21.5868 21.8543 21.7033 21.8449 21.8198 21.8329C21.8887 21.8248 21.9549 21.8114 22.0264 21.8074C22.1257 21.8033 22.2317 21.8114 22.3349 21.8141C22.429 21.8167 22.5177 21.8127 22.6117 21.8194C22.6819 21.8261 22.7561 21.8436 22.8249 21.853C22.9587 21.8718 23.0911 21.8866 23.2288 21.9174C23.2381 21.9201 23.2473 21.9241 23.2579 21.9255C23.8737 22.0664 24.5279 22.3282 25.2046 22.7256C28.8754 24.8736 31.8417 30.081 31.8284 34.3541C31.8271 34.836 31.7781 35.275 31.7039 35.6898C31.6801 35.8335 31.6404 35.961 31.606 36.0953C31.5649 36.2631 31.5358 36.4443 31.4815 36.5987C31.451 36.686 31.406 36.7544 31.3716 36.8377C31.3186 36.9665 31.263 37.0887 31.2034 37.2068C31.0921 37.4216 30.9663 37.6123 30.8286 37.7922C30.7611 37.8808 30.6988 37.9788 30.6247 38.058C30.4194 38.2808 30.193 38.4755 29.9427 38.6285C29.221 39.0729 28.3324 39.2286 27.3313 39.046L28.9813 40.0099C33.003 42.3646 36.2408 48.0621 36.2275 52.7352L36.205 60.7712L42.2648 57.203L42.2859 49.1669C42.2979 44.4911 39.0601 38.7963 35.041 36.4443Z" fill="#D93D7C"/>
<path d="M20.499 22.2437L20.4763 22.257C20.4803 22.2543 20.4843 22.2543 20.487 22.2517L20.499 22.2437Z" fill="#D93D7C"/>
<path d="M28.981 40.0102L27.331 39.045C28.3322 39.2289 29.2221 39.0732 29.9438 38.6288C30.1927 38.4744 30.4192 38.2811 30.6244 38.0583C30.6986 37.9777 30.7608 37.8811 30.8297 37.7925C30.9648 37.6139 31.0919 37.4206 31.2031 37.2071C31.264 37.089 31.3197 36.9655 31.3726 36.838C31.4057 36.7547 31.4508 36.6849 31.4825 36.599C31.5355 36.4446 31.5646 36.2634 31.6057 36.0956C31.6401 35.96 31.6798 35.8338 31.705 35.6902C31.7778 35.2753 31.8282 34.8363 31.8282 34.3544C31.8414 30.0813 28.8751 24.8739 25.2043 22.7259C24.5276 22.3285 23.8735 22.0668 23.2577 21.9245C23.2471 21.9231 23.2378 21.9191 23.2285 21.9164C23.0908 21.8869 22.9584 21.8708 22.826 21.8533C22.7558 21.8439 22.6816 21.8265 22.6115 21.8197C22.5174 21.8103 22.4287 21.8157 22.3347 21.813C22.2314 21.8103 22.1255 21.8023 22.0261 21.8063C21.9546 21.8103 21.8897 21.8251 21.8196 21.8332C21.7043 21.8452 21.5852 21.8546 21.4739 21.8761C21.4104 21.8895 21.3521 21.9137 21.2912 21.9285C21.1799 21.9594 21.0661 21.9849 20.9601 22.0265C20.8979 22.0493 20.8396 22.0842 20.7774 22.1124C20.6834 22.154 20.5893 22.1916 20.5033 22.2426L20.4993 22.244L20.4874 22.2507C19.2889 22.9514 18.5434 24.4456 18.5368 26.5748C18.5315 28.5375 19.1698 30.6894 20.2 32.6562C20.6767 33.569 21.2369 34.439 21.8686 35.2297C22.2261 35.6808 22.5995 36.1157 22.9955 36.5077L21.3428 35.5398C20.8396 35.2445 20.3457 35.0162 19.8703 34.8525C19.8517 34.8457 19.8345 34.8431 19.816 34.8363C19.5975 34.7652 19.383 34.7021 19.1724 34.6551C19.1115 34.6417 19.0559 34.6377 18.9963 34.6269C18.8294 34.596 18.6639 34.5652 18.5037 34.5517C18.407 34.5423 18.3143 34.5477 18.2189 34.545C18.1011 34.541 17.9819 34.5316 17.868 34.537C17.7541 34.5437 17.6469 34.5625 17.537 34.5772C17.4482 34.5893 17.3555 34.5947 17.2681 34.6121C17.1556 34.635 17.0496 34.6726 16.9411 34.7061C16.8643 34.7289 16.7821 34.7451 16.7067 34.7746C16.6047 34.8122 16.5094 34.8659 16.4127 34.9129C16.3372 34.9491 16.2604 34.98 16.1889 35.0203C14.8752 35.7868 14.0569 37.4233 14.0502 39.7538L14.0291 47.7898L36.2048 60.7715L36.2286 52.7355C36.2405 48.0624 33.0028 42.3649 28.981 40.0102Z" fill="#EA70A2"/>
<path d="M70.9764 39.2473L73.6554 37.6659L74.9545 39.2782L72.2742 40.8569L70.9764 39.2473Z" fill="#5E659A"/>
<path d="M75.4822 42.7371L78.1638 41.1557L78.8603 44.1186L76.1774 45.7L75.4822 42.7371Z" fill="#5E659A"/>
<path d="M75.2518 41.7487L77.9308 40.17L78.1638 41.1567L75.4822 42.7368L75.2518 41.7487Z" fill="#5E659A"/>
<path d="M70.9764 39.2473L73.6554 37.6659L77.9313 40.1709L75.2524 41.7484L70.9764 39.2473Z" fill="#5E659A"/>
<path d="M76.7365 32.6424L67.6323 27.3142C66.6577 26.7423 65.8578 27.1987 65.8525 28.3425L65.8353 35.02C65.8327 36.1557 66.6259 37.5505 67.6045 38.1224L72.2751 40.857L76.1776 45.7007L75.4824 42.7378L76.706 43.4534C77.6886 44.0252 78.4818 43.5608 78.4845 42.425L78.503 35.7476C78.5057 34.6038 77.7164 33.217 76.7365 32.6424Z" fill="#7180BD"/>
<path d="M79.4186 31.064L70.3144 25.7357C69.8231 25.4471 69.3729 25.4189 69.0524 25.6095L66.3695 27.1883C66.6939 27.0003 67.1415 27.0258 67.6328 27.3145L76.737 32.6427C77.7169 33.2173 78.5062 34.6041 78.5035 35.7465L78.485 42.4253C78.4823 42.9891 78.2863 43.3905 77.9672 43.5758L80.6475 41.9984C80.9653 41.8091 81.1639 41.4077 81.1666 40.8439L81.1851 34.1691C81.1878 33.0253 80.3985 31.6386 79.4186 31.064Z" fill="#5E659A"/>
<path d="M68.5272 32.0341C69.0887 32.3616 69.5469 33.1591 69.5442 33.8142C69.5442 34.4693 69.0834 34.7298 68.5193 34.3995C67.9605 34.0719 67.5036 33.2772 67.5062 32.6221C67.5102 31.9656 67.9684 31.7065 68.5272 32.0341Z" fill="white"/>
<path d="M72.0499 34.095C72.6088 34.4226 73.0643 35.2174 73.0617 35.8725C73.059 36.5289 72.6008 36.788 72.042 36.4632C71.4805 36.1329 71.029 35.3382 71.0303 34.683C71.0329 34.0266 71.4858 33.7648 72.0499 34.095Z" fill="white"/>
<path d="M75.5699 36.1559C76.1314 36.4834 76.5817 37.2755 76.5817 37.9333C76.579 38.5871 76.1235 38.8515 75.5593 38.5213C74.9979 38.191 74.549 37.399 74.549 36.7439C74.549 36.0874 75.0058 35.8256 75.5699 36.1559Z" fill="white"/>
<path d="M50.9344 1.74975C47.4344 -0.297514 44.2642 -0.486803 41.9746 0.861038L37.3304 3.59565C39.6187 2.24781 42.7903 2.4371 46.2916 4.48705C53.2385 8.55071 58.856 18.4179 58.8335 26.5116C58.8202 30.5364 57.4205 33.3663 55.16 34.698L59.8054 31.9634C62.0633 30.6317 63.4683 27.7991 63.4789 23.7743C63.4988 15.6833 57.8813 5.8161 50.9344 1.74975Z" fill="#43A8AD"/>
<path d="M52.3544 27.144C52.9079 27.4662 53.3582 28.2502 53.3555 28.8932C53.3529 29.5376 52.9 29.7981 52.3491 29.4745L40.1078 22.3084C39.5543 21.9862 39.1041 21.1969 39.1067 20.5525C39.1067 19.9067 39.5622 19.6557 40.1131 19.9779L52.3544 27.144Z" fill="white"/>
<path d="M52.3699 21.8921C52.9234 22.2143 53.371 22.9983 53.371 23.6413C53.3683 24.2857 52.9154 24.5488 52.3619 24.2226L40.1206 17.0592C39.5697 16.7343 39.1195 15.9476 39.1195 15.3032C39.1222 14.6575 39.5777 14.4038 40.1286 14.7286L52.3699 21.8921Z" fill="white"/>
<path d="M52.383 16.6402C52.9391 16.9651 53.3894 17.7464 53.3867 18.3921C53.3814 19.0365 52.9312 19.297 52.3777 18.9734L40.1364 11.8073C39.5855 11.4851 39.1353 10.6958 39.1353 10.0541C39.1379 9.40833 39.5908 9.15192 40.1443 9.47679L52.383 16.6402Z" fill="white"/>
<path d="M52.3777 18.9738L40.1364 11.8077C39.5856 11.4855 39.1353 10.6961 39.1353 10.0531C39.138 9.40872 39.5909 9.15231 40.1444 9.47719L52.383 16.6406C52.9392 16.9655 53.3894 17.7468 53.3868 18.3912C53.3815 19.0369 52.9312 19.296 52.3777 18.9738ZM52.3618 24.2229L40.1205 17.0595C39.5697 16.7346 39.1194 15.9479 39.1194 15.3035C39.1221 14.6578 39.5776 14.4041 40.1285 14.7289L52.3698 21.8924C52.9233 22.2146 53.3709 22.9986 53.3709 23.6416C53.3682 24.286 52.9154 24.5478 52.3618 24.2229ZM52.3499 29.4746L40.1073 22.3085C39.5538 21.9863 39.1049 21.197 39.1075 20.5526C39.1075 19.9068 39.5617 19.6558 40.1126 19.978L52.3539 27.1441C52.9074 27.4663 53.3577 28.2503 53.355 28.8933C53.3524 29.5377 52.9008 29.7982 52.3499 29.4746M46.2915 4.48722C39.3366 0.415503 33.6808 3.68442 33.6596 11.7768C33.649 15.4029 34.7693 19.3833 36.6365 23.0375L32.7723 29.5726L41.3084 29.7901C42.8127 31.4132 44.468 32.7946 46.2094 33.8122C53.1564 37.8758 58.8122 34.6109 58.8334 26.5118C58.8572 18.418 53.2385 8.55088 46.2915 4.48722Z" fill="#6AC4D3"/>
<path d="M78.1241 52.5947L75.3392 54.2352C75.3419 54.2338 75.3459 54.2325 75.3498 54.2311C75.4558 54.1694 75.5816 54.1425 75.6968 54.0969C75.8292 54.0459 75.9524 53.9761 76.0967 53.9479C76.2238 53.921 76.3682 53.9344 76.5032 53.9264C76.6529 53.917 76.7946 53.8915 76.9522 53.9062C77.1203 53.9197 77.3031 53.9787 77.4805 54.0217C77.6209 54.0553 77.7546 54.0647 77.899 54.1157C78.2274 54.2284 78.5664 54.3855 78.9147 54.5882L80.0575 55.2568C79.7834 54.9856 79.5265 54.6876 79.2775 54.3748C78.8405 53.827 78.4538 53.2256 78.1241 52.5947Z" fill="#7FA12B"/>
<path d="M88.3856 55.2128L87.9102 54.9349L89.0173 54.2824C89.837 53.7965 90.3481 52.7695 90.3534 51.3035C90.3614 48.3487 88.3101 44.7455 85.7729 43.2594C84.495 42.5116 83.3389 42.4432 82.5046 42.9345L78.3359 45.3926C78.4604 45.3214 78.6034 45.2865 78.7412 45.2396C78.8312 45.21 78.912 45.1603 79.0073 45.1402C79.1583 45.1107 79.3278 45.1174 79.492 45.116C79.5926 45.1147 79.6853 45.0919 79.79 45.1013C79.982 45.1174 80.1899 45.1778 80.3938 45.2342C80.4825 45.2583 80.566 45.261 80.656 45.2919C80.9566 45.3953 81.2678 45.5403 81.5856 45.7269C84.1229 47.213 86.1741 50.8162 86.1635 53.771C86.1622 54.1012 86.1304 54.4019 86.0801 54.6865C86.0616 54.7939 86.0324 54.8906 86.0059 54.9913C85.9795 55.1 85.9596 55.2181 85.9252 55.3188C85.9053 55.3766 85.8748 55.4209 85.8536 55.4759C85.8152 55.5726 85.7715 55.6638 85.7265 55.7511C85.6537 55.8921 85.5716 56.0169 85.4829 56.135C85.4325 56.2008 85.3849 56.2733 85.3292 56.3337C85.1915 56.4827 85.0392 56.6116 84.8724 56.7163C84.3718 57.0291 83.7534 57.1392 83.0555 57.009L84.1983 57.6802C86.9779 59.3087 89.2159 63.2461 89.2079 66.4801L89.1921 72.0353L93.3793 69.5678L93.3952 64.0127C93.4031 60.7787 91.1665 56.8412 88.3856 55.2128Z" fill="#7FA12B"/>
<path d="M78.3297 45.396L78.3164 45.404C78.3191 45.4027 78.3217 45.4027 78.3231 45.4013C78.3257 45.4 78.3271 45.3973 78.3297 45.396Z" fill="#7FA12B"/>
<path d="M84.1983 57.6799L83.0555 57.0087C83.7533 57.1389 84.3718 57.0288 84.8723 56.716C85.0392 56.6113 85.1915 56.4824 85.3292 56.3334C85.3848 56.273 85.4325 56.2005 85.4828 56.1347C85.5715 56.0166 85.655 55.8904 85.7265 55.7508C85.7715 55.6635 85.8152 55.5722 85.8536 55.4756C85.8761 55.4205 85.9052 55.3762 85.9251 55.3185C85.9595 55.2178 85.9794 55.0997 86.0059 54.991C86.0324 54.8903 86.0615 54.795 86.08 54.6876C86.1304 54.4016 86.1635 54.1009 86.1635 53.7707C86.1741 50.8159 84.1228 47.2127 81.5856 45.7266C81.2677 45.54 80.9566 45.3963 80.6559 45.2916C80.5659 45.2607 80.4825 45.258 80.3937 45.2339C80.1898 45.1775 79.9819 45.1184 79.7899 45.101C79.6853 45.0916 79.5913 45.1144 79.4919 45.1157C79.3277 45.1184 79.1582 45.1104 79.0073 45.1399C78.9119 45.16 78.8311 45.2097 78.7411 45.2392C78.6034 45.2876 78.4604 45.3211 78.3359 45.3923L78.3293 45.3963C78.3266 45.3977 78.3253 45.4003 78.3226 45.4017C77.4937 45.8863 76.9799 46.9187 76.9746 48.39C76.9719 49.7459 77.4116 51.2334 78.124 52.5946C78.4537 53.2256 78.8404 53.827 79.2774 54.3748C79.5264 54.6876 79.7833 54.9856 80.0574 55.2568L78.9146 54.5882C78.5663 54.3855 78.2273 54.2284 77.8989 54.1157C77.7545 54.0647 77.6208 54.0553 77.4804 54.0204C77.303 53.9787 77.1202 53.9197 76.952 53.9049C76.7945 53.8915 76.6528 53.917 76.5031 53.9264C76.3681 53.9344 76.225 53.921 76.0966 53.9479C75.9522 53.976 75.8291 54.0459 75.6967 54.0969C75.5815 54.1425 75.4557 54.1694 75.3497 54.2311C74.4413 54.7601 73.8758 55.8918 73.8705 57.5014L73.8573 63.0606L89.192 72.035L89.2079 66.4798C89.2158 63.2458 86.9792 59.3083 84.1983 57.6799Z" fill="#B2CF00"/>
<defs>
<linearGradient id="paint0_linear_438_1064" x1="58.6343" y1="32.666" x2="44.1239" y2="68.4505" gradientUnits="userSpaceOnUse">
<stop stop-color="white"/>
<stop offset="1" stop-color="#C4C6C8"/>
</linearGradient>
<linearGradient id="paint1_linear_438_1064" x1="108.979" y1="49.5124" x2="94.7603" y2="84.5766" gradientUnits="userSpaceOnUse">
<stop stop-color="white"/>
<stop offset="1" stop-color="#C4C6C8"/>
</linearGradient>
<radialGradient id="paint2_radial_438_1064" cx="0" cy="0" r="1" gradientUnits="userSpaceOnUse" gradientTransform="translate(52.7037 61.0349) rotate(19.856) scale(12.6119 5.79985)">
<stop stop-color="#EBEBEC"/>
<stop offset="1" stop-color="white"/>
</radialGradient>
<radialGradient id="paint3_radial_438_1064" cx="0" cy="0" r="1" gradientUnits="userSpaceOnUse" gradientTransform="translate(69.7687 56.9826) rotate(19.856) scale(8.37134 3.84972)">
<stop stop-color="#EBEBEC"/>
<stop offset="1" stop-color="white"/>
</radialGradient>
</defs>
</svg>
